<?xml version="1.0" standalone="no"?>
<!DOCTYPE svg PUBLIC "-//W3C//DTD SVG 20010904//EN"
 "http://www.w3.org/TR/2001/REC-SVG-20010904/DTD/svg10.dtd">
<svg version="1.0" xmlns="http://www.w3.org/2000/svg"
 width="88.000000pt" height="88.000000pt" viewBox="0 0 88.000000 88.000000"
 preserveAspectRatio="xMidYMid meet">

<g transform="translate(0.000000,88.000000) scale(0.100000,-0.100000)"
fill="#61DAFB" stroke="none">
<path d="M0 440 l0 -440 440 0 440 0 0 440 0 440 -440 0 -440 0 0 -440z m115
350 c3 -5 1 -10 -4 -10 -6 0 -11 5 -11 10 0 6 2 10 4 10 3 0 8 -4 11 -10z m48
-6 c4 -1 13 -2 20 -3 9 -1 9 -3 -2 -10 -18 -12 -51 -2 -51 16 0 9 5 11 13 6 6
-4 15 -8 20 -9z m71 4 c-5 -8 -2 -9 9 -5 10 3 17 2 17 -3 0 -6 -4 -10 -10 -10
-5 0 -10 -4 -10 -10 0 -5 8 -7 18 -4 14 5 14 4 2 -4 -22 -15 -70 -3 -63 15 4
11 8 11 13 3 5 -9 9 -9 14 -1 4 6 -3 15 -16 20 -22 9 -22 10 5 10 19 1 26 -3
21 -11z m84 -17 l1 -26 -14 25 c-8 14 -14 19 -15 12 0 -7 -5 -10 -11 -6 -8 5
-8 8 0 14 23 13 37 6 39 -19z m-231 -3 c-3 -8 -6 -5 -6 6 -1 11 2 17 5 13 3
-3 4 -12 1 -19z m71 -44 c1 0 -12 -1 -30 -1 -18 0 -25 2 -15 4 10 3 14 9 10
16 -4 7 2 5 13 -3 10 -8 20 -15 22 -16z m152 6 c11 -8 7 -9 -15 -4 -37 8 -45
14 -19 14 10 0 26 -5 34 -10z m75 -40 c4 0 3 6 -3 13 -8 9 3 12 49 14 l58 1 7
-33 c4 -23 10 -32 20 -28 8 3 14 0 14 -6 0 -6 -4 -11 -10 -11 -5 0 -10 -20
-10 -44 0 -33 5 -48 19 -58 19 -14 19 -14 -1 -27 -11 -7 -17 -8 -14 -3 3 6 -1
13 -9 16 -11 4 -14 13 -9 31 3 14 3 50 -1 80 -5 44 -9 53 -23 48 -15 -4 -15
-3 -2 6 8 6 13 11 10 12 -38 7 -50 4 -45 -10 5 -13 4 -14 -6 -3 -16 15 -33 16
-23 0 5 -7 3 -8 -6 -3 -10 6 -12 4 -6 -11 5 -14 -1 -11 -23 10 -33 32 -43 50
-13 23 10 -10 22 -17 27 -17z m171 18 c4 -6 3 -8 -3 -5 -6 4 -8 -22 -5 -71 2
-42 2 -75 -2 -72 -3 3 -6 34 -7 69 -1 38 -7 68 -16 77 -12 12 -12 14 6 14 11
0 23 -5 27 -12z m54 -14 c0 -8 -4 -14 -9 -14 -6 0 -9 9 -8 19 1 22 17 18 17
-5z m-420 2 c0 -2 -6 -9 -13 -15 -10 -8 -14 -7 -14 4 0 8 6 15 14 15 7 0 13
-2 13 -4z m-10 -46 c0 -5 -4 -10 -10 -10 -5 0 -10 5 -10 10 0 6 5 10 10 10 6
0 10 -4 10 -10z m60 -6 c8 -8 9 -14 4 -13 -10 2 -39 -7 -65 -21 -23 -12 -20
14 3 29 11 7 18 7 18 1 0 -5 5 -10 10 -10 6 0 10 7 10 15 0 19 4 19 20 -1z
m-26 -43 c3 -5 -3 -11 -14 -14 -20 -5 -26 3 -13 16 9 10 21 9 27 -2z m107 -38
c13 -16 12 -17 -3 -4 -10 7 -18 15 -18 17 0 8 8 3 21 -13z m154 7 c3 -6 -1 -7
-9 -4 -18 7 -21 14 -7 14 6 0 13 -4 16 -10z m-265 -163 c0 -108 4 -167 11
-174 9 -9 6 -21 -10 -46 -12 -20 -21 -39 -20 -44 1 -4 1 -18 0 -30 -1 -29 -31
-31 -31 -3 0 11 4 19 9 18 5 -2 9 0 10 5 3 21 0 28 -9 22 -5 -3 -10 -2 -10 4
0 5 5 11 12 13 6 2 12 12 14 22 1 10 -3 16 -10 13 -6 -3 -12 3 -12 14 0 12 7
19 19 19 16 0 18 5 12 32 -4 18 -9 89 -12 158 -3 79 -9 128 -16 132 -7 5 0 8
16 8 l27 0 0 -163z m144 117 c3 -7 -5 -9 -22 -6 l-27 5 21 -24 c30 -34 38 -50
23 -47 -9 2 -13 -24 -13 -107 l-1 -110 30 -6 c19 -4 5 -6 -40 -6 -38 0 -55 2
-37 4 l32 4 0 114 c0 80 4 115 12 117 8 3 2 15 -15 33 -18 20 -23 31 -15 36
17 11 47 7 52 -7z m192 -41 c-10 -10 -19 5 -10 18 6 11 8 11 12 0 2 -7 1 -15
-2 -18z m-155 -138 c-3 -129 -11 -137 -11 -11 0 61 -4 95 -10 91 -6 -3 -7 1
-4 10 4 9 11 14 17 12 6 -2 9 -42 8 -102z m172 98 c-7 -2 -13 -11 -13 -18 0
-7 -7 -12 -15 -11 -39 6 -28 36 13 35 15 0 21 -3 15 -6z m-80 -92 c-2 -3 -20
12 -41 34 l-37 39 41 -35 c22 -19 39 -36 37 -38z m-115 -37 l-3 -79 -5 87 c-3
48 -1 83 3 79 4 -4 7 -43 5 -87z m141 11 c5 2 21 -10 37 -27 16 -17 23 -28 16
-24 -10 6 -12 -2 -10 -29 2 -37 11 -48 39 -50 11 -1 15 4 11 17 -7 28 11 22
48 -17 19 -19 29 -35 23 -35 -7 0 -15 5 -18 10 -4 6 -11 7 -17 4 -6 -4 -9 -3
-5 2 3 5 -2 18 -10 29 -15 20 -15 20 -9 0 4 -13 0 -24 -12 -32 -15 -9 -24 -6
-50 17 -18 15 -32 36 -32 46 0 17 1 17 14 -1 13 -18 14 -18 9 7 -4 20 -11 27
-26 25 -17 -2 -21 4 -23 38 -1 22 0 34 3 27 3 -6 8 -10 12 -7z m-162 -52 c-3
-10 -5 -2 -5 17 0 19 2 27 5 18 2 -10 2 -26 0 -35z m160 -38 c0 -8 -8 -15 -18
-15 -10 0 -22 -7 -27 -16 -7 -12 -11 -13 -17 -5 -8 15 -1 24 23 27 9 2 18 8
20 13 5 16 19 13 19 -4z m187 -4 c3 -5 0 -11 -7 -14 -8 -3 -14 1 -14 9 0 16
13 19 21 5z m-267 -7 c-3 -3 -12 -4 -19 -1 -8 3 -5 6 6 6 11 1 17 -2 13 -5z
m163 -3 c0 -6 -4 -12 -8 -15 -5 -3 -9 1 -9 9 0 8 4 15 9 15 4 0 8 -4 8 -9z
m125 -30 c-8 -36 -21 -41 -21 -8 0 20 17 49 24 42 2 -2 1 -17 -3 -34z m-498
-43 c-3 -8 -6 -5 -6 6 -1 11 2 17 5 13 3 -3 4 -12 1 -19z m403 0 c0 -10 2 -10
9 0 5 9 8 -1 7 -26 -1 -24 -6 -39 -13 -39 -7 0 -13 4 -13 8 0 5 -7 6 -15 3 -8
-4 -15 -1 -15 6 0 6 -5 8 -10 5 -6 -4 -8 -9 -6 -13 2 -4 -72 -7 -165 -7 -153
0 -170 2 -175 18 -3 10 -11 14 -17 11 -7 -4 -9 -4 -5 0 3 4 82 7 175 6 197 -2
214 -3 231 -13 16 -11 16 25 0 41 -9 9 -9 12 0 12 7 0 12 -6 12 -12z"/>
<path d="M500 541 c0 -5 7 -12 16 -15 14 -5 15 -4 4 9 -14 17 -20 19 -20 6z"/>
<path d="M192 231 c-11 -6 -10 -10 4 -15 20 -8 32 0 18 14 -5 5 -15 5 -22 1z"/>
<path d="M520 429 c0 -5 5 -7 10 -4 6 3 10 8 10 11 0 2 -4 4 -10 4 -5 0 -10
-5 -10 -11z"/>
<path d="M509 313 c0 -5 -2 -16 -4 -26 -2 -9 1 -15 6 -11 5 3 6 10 3 16 -5 8
-1 9 11 4 15 -5 16 -4 5 9 -14 17 -20 19 -21 8z"/>
<path d="M318 103 c45 -2 119 -2 165 0 45 1 8 3 -83 3 -91 0 -128 -2 -82 -3z"/>
</g>
</svg>
